<svg xmlns="http://www.w3.org/2000/svg" viewBox="0 0 1200 800" fill="none">
  <rect width="1200" height="800" fill="#EEF3F2"/>
  <rect x="140" y="116" width="920" height="568" rx="44" fill="white" stroke="#D7CDBE" stroke-width="8"/>
  <rect x="208" y="186" width="784" height="72" rx="24" fill="#1B7A6E" fill-opacity=".12"/>
  <rect x="208" y="306" width="340" height="248" rx="32" fill="#F6F3EC"/>
  <rect x="586" y="306" width="406" height="248" rx="32" fill="#F6F3EC"/>
  <rect x="244" y="344" width="184" height="24" rx="12" fill="#141F27" fill-opacity=".84"/>
  <rect x="244" y="392" width="246" height="18" rx="9" fill="#141F27" fill-opacity=".14"/>
  <rect x="244" y="428" width="210" height="18" rx="9" fill="#141F27" fill-opacity=".1"/>
  <rect x="244" y="478" width="128" height="42" rx="21" fill="#1B7A6E"/>
  <rect x="628" y="344" width="220" height="24" rx="12" fill="#141F27" fill-opacity=".84"/>
  <rect x="628" y="392" width="300" height="18" rx="9" fill="#141F27" fill-opacity=".14"/>
  <rect x="628" y="440" width="300" height="18" rx="9" fill="#141F27" fill-opacity=".14"/>
  <rect x="628" y="488" width="300" height="18" rx="9" fill="#141F27" fill-opacity=".14"/>
</svg>
